<?xml version="1.0" encoding="utf-8"?>
<!-- Generator: Adobe Illustrator 26.0.0, SVG Export Plug-In . SVG Version: 6.00 Build 0)  -->
<svg version="1.1" id="Capa_1" xmlns="http://www.w3.org/2000/svg" xmlns:xlink="http://www.w3.org/1999/xlink" x="0px" y="0px"
	 viewBox="0 0 48 48" style="enable-background:new 0 0 48 48;" xml:space="preserve">
<style type="text/css">
	.st0{fill:#FFFFFF;}
</style>
<g>
	<path class="st0" d="M24,41.5c-10.1,0-18.3-8.2-18.3-18.3S13.9,4.9,24,4.9s18.3,8.2,18.3,18.3S34.1,41.5,24,41.5z M24,7.4
		c-8.7,0-15.9,7.1-15.9,15.9S15.3,39.1,24,39.1S39.9,32,39.9,23.2S32.7,7.4,24,7.4z"/>
</g>
<g>
	<path class="st0" d="M19.9,16.7c-1.1,0-2.1,0-3.2,0c-0.6-0.1-0.5,1.8-2.7,1.7c-2.5-0.2-2.8-3.7-0.5-4.4c1.1-0.3,2.4,0.2,2.8,1.3
		c0.1,0.2,0.2,0.3,0.4,0.3c1.7,0,3.4,0,5.2,0C21.8,14.8,22.1,14,23,14c1.3,0.1,3.4-0.6,3.2,1.5c1.8,0,3.5,0,5.3,0
		c0.2,0,0.2-0.1,0.3-0.2c0.4-1.1,1.5-1.7,2.7-1.4c2.6,0.6,2.1,4.5-0.6,4.5c-0.9,0-1.8-0.6-2.1-1.5c0-0.1-0.1-0.2-0.2-0.2
		c-1.1,0-2.2,0-3.3,0c2.1,1.4,3.4,3.4,3.7,6c0,0.2,0.1,0.2,0.2,0.3c2.3,1.1,0.6,4.4-1.6,3.3c-0.9-0.5-1.2-1.6-0.7-2.5
		c0.2-0.3,0.5-0.6,0.8-0.8c0.4-2.3-2.1-5.2-4.4-5.9c0,1.7-2.1,1.1-3.2,1.2c-0.7,0-1.1-0.5-1.1-1.2c-2.5,0.9-4.2,3-4.5,5.6
		c0,0.1,0,0.2,0.2,0.3c0.8,0.4,1.2,1.2,1,2.1c-0.2,0.8-0.9,1.4-1.8,1.4c-1.9,0-2.5-2.7-0.8-3.5c0.1-0.1,0.2-0.1,0.2-0.3
		C16.4,20.2,17.7,18.2,19.9,16.7z M14.2,17.3c1.5,0,1.5-2.2,0-2.2C12.8,15.1,12.8,17.2,14.2,17.3z M33.8,15c-1.5,0-1.5,2.2,0,2.2
		C35.2,17.2,35.2,15.1,33.8,15z M23,17.1c0.7,0,1.3,0,1.9,0c0-0.6,0-1.3,0-1.9c-0.6,0-1.2,0-1.8,0C22.9,15.2,23.1,16.8,23,17.1z
		 M31.3,25.3c0.9,0,0.9-1.3,0-1.3C30.4,24,30.4,25.3,31.3,25.3z M17.4,24.7c0-0.9-1.3-0.9-1.3,0C16.1,25.5,17.4,25.5,17.4,24.7z"/>
	<path class="st0" d="M28.9,31.8c1.6,1.1,1,3.4-1,3.4c-2.6,0-5.2,0-7.8,0c-1,0-1.8-0.6-1.9-1.6c-0.1-0.8,0.3-1.4,0.9-1.8
		c-0.3-0.8-0.7-1.6-1-2.5c-0.4-1.1-0.3-2.2,0.5-3.1c1.6-2,3.3-3.9,4.9-5.9c0.3-0.4,0.7-0.4,1,0c1.7,2,3.3,4,5,6
		C31,28,29.5,30,28.9,31.8z M23.4,22.3c-1.3,1.6-2.6,3.2-4,4.8c-1.1,1.3,0.4,3.1,0.8,4.4c0,0.1,0.1,0.1,0.2,0.1c2.4,0,4.7,0,7.1,0
		c0.1,0,0.2,0,0.3-0.2c0.3-0.8,0.7-1.7,1-2.5c0.3-0.7,0.2-1.3-0.3-1.9c-1.3-1.6-2.6-3.2-3.9-4.7c0,1.3,0,2.5,0,3.7
		c0,0.2,0,0.2,0.2,0.3c0.9,0.4,1.4,1.3,1.2,2.3c-0.4,2.1-3.6,2.1-3.9,0c-0.2-1,0.3-1.9,1.2-2.3c0.1-0.1,0.2-0.1,0.2-0.3
		C23.4,24.8,23.4,23.5,23.4,22.3z M24,34c1.4,0,2.7,0,4.1,0c0.9-0.1,0.7-1.4-0.2-1.3c-2.7,0-5.3,0-8,0c-0.3,0.1-0.6,0.4-0.5,0.7
		c0.1,0.3,0.3,0.5,0.7,0.5C21.4,34,22.7,34,24,34z M24.9,28.1c0-1.1-1.7-1.1-1.7,0C23.2,29.3,24.8,29.3,24.9,28.1z"/>
</g>
</svg>
